<?xml version="1.0" encoding="UTF-8" standalone="no"?>
<!-- Created with Inkscape (http://www.inkscape.org/) -->

<svg
   width="1000"
   height="1000"
   viewBox="0 0 264.58333 264.58333"
   version="1.1"
   id="svg1"
   xmlns:xlink="http://www.w3.org/1999/xlink"
   xmlns="http://www.w3.org/2000/svg"
   xmlns:svg="http://www.w3.org/2000/svg">
  <defs
     id="defs1">
    <linearGradient
       id="linearGradient352">
      <stop
         style="stop-color:#0000ff;stop-opacity:0;"
         offset="0"
         id="stop353" />
      <stop
         style="stop-color:#000000;stop-opacity:1;"
         offset="1"
         id="stop352" />
    </linearGradient>
    <linearGradient
       id="linearGradient82">
      <stop
         style="stop-color:#fcaf3e;stop-opacity:1;"
         offset="0"
         id="stop83" />
      <stop
         style="stop-color:#f57900;stop-opacity:1;"
         offset="1"
         id="stop84" />
    </linearGradient>
    <meshgradient
       id="meshgradient57"
       gradientUnits="userSpaceOnUse"
       x="243.29239"
       y="127.32129">
      <meshrow
         id="meshrow57">
        <meshpatch
           id="meshpatch57">
          <stop
             path="c 0,54.5779  -44.2441,98.822  -98.822,98.822"
             style="stop-color:#ffffff;stop-opacity:1"
             id="stop57" />
          <stop
             path="l 0,-98.822"
             style="stop-color:#000000;stop-opacity:1"
             id="stop58" />
          <stop
             path="l 0,0"
             style="stop-color:#ffffff;stop-opacity:1"
             id="stop59" />
          <stop
             path="l 98.822,0"
             style="stop-color:#000000;stop-opacity:1"
             id="stop60" />
        </meshpatch>
        <meshpatch
           id="meshpatch60">
          <stop
             path="c -54.5779,0  -98.822,-44.2441  -98.822,-98.822"
             id="stop61" />
          <stop
             path="l 98.822,-1.42109e-14"
             style="stop-color:#ffffff;stop-opacity:1"
             id="stop62" />
          <stop
             path="l 0,0"
             style="stop-color:#000000;stop-opacity:1"
             id="stop63" />
        </meshpatch>
        <meshpatch
           id="meshpatch63">
          <stop
             path="c -7.10543e-15,-54.5779  44.2441,-98.822  98.822,-98.822"
             id="stop64" />
          <stop
             path="l 2.84217e-14,98.822"
             style="stop-color:#000000;stop-opacity:1"
             id="stop65" />
          <stop
             path="l 0,0"
             style="stop-color:#ffffff;stop-opacity:1"
             id="stop66" />
        </meshpatch>
        <meshpatch
           id="meshpatch66">
          <stop
             path="c 54.5779,-1.06581e-14  98.822,44.2441  98.822,98.822"
             id="stop67" />
          <stop
             path="l -98.822,2.84217e-14"
             style="stop-color:#ffffff;stop-opacity:1"
             id="stop68" />
          <stop
             path="l 0,0"
             style="stop-color:#000000;stop-opacity:1"
             id="stop69" />
        </meshpatch>
      </meshrow>
    </meshgradient>
    <radialGradient
       xlink:href="#linearGradient82"
       id="radialGradient84"
       cx="194.07832"
       cy="120.58506"
       fx="194.07832"
       fy="120.58506"
       r="49.809383"
       gradientTransform="matrix(1,0,0,0.86472566,0,16.312065)"
       gradientUnits="userSpaceOnUse" />
    <radialGradient
       xlink:href="#linearGradient82"
       id="radialGradient85"
       cx="151.2037"
       cy="176.33669"
       fx="151.2037"
       fy="176.33669"
       r="43.074089"
       gradientTransform="matrix(1,0,0,1.1701217,0,-29.9987)"
       gradientUnits="userSpaceOnUse" />
    <radialGradient
       xlink:href="#linearGradient82"
       id="radialGradient86"
       cx="94.862312"
       cy="134.55682"
       fx="94.862312"
       fy="134.55682"
       r="49.80925"
       gradientTransform="matrix(1,0,0,0.85470907,0,19.549886)"
       gradientUnits="userSpaceOnUse" />
    <radialGradient
       xlink:href="#linearGradient82"
       id="radialGradient87"
       cx="137.73643"
       cy="77.713348"
       fx="137.73643"
       fy="77.713348"
       r="43.074005"
       gradientTransform="matrix(1,0,0,1.1563676,0,-12.151849)"
       gradientUnits="userSpaceOnUse" />
    <radialGradient
       xlink:href="#linearGradient352"
       id="radialGradient353"
       cx="186.76569"
       cy="162.40056"
       fx="186.76569"
       fy="162.40056"
       r="42.581295"
       gradientTransform="matrix(1,0,0,1.1697143,0,-27.561703)"
       gradientUnits="userSpaceOnUse" />
    <radialGradient
       xlink:href="#linearGradient352"
       id="radialGradient356"
       cx="109.39086"
       cy="169.3204"
       fx="109.39086"
       fy="169.3204"
       r="49.807693"
       gradientTransform="matrix(1,0,0,0.86108257,0,23.521557)"
       gradientUnits="userSpaceOnUse" />
    <radialGradient
       xlink:href="#linearGradient352"
       id="radialGradient357"
       cx="102.16937"
       cy="92.242287"
       fx="102.16937"
       fy="92.242287"
       r="42.586212"
       gradientTransform="matrix(1,0,0,1.1695792,0,-15.642375)"
       gradientUnits="userSpaceOnUse" />
    <radialGradient
       xlink:href="#linearGradient352"
       id="radialGradient358"
       cx="179.54913"
       cy="85.020271"
       fx="179.54913"
       fy="85.020271"
       r="49.807693"
       gradientTransform="matrix(1,0,0,0.85500805,0,12.327255)"
       gradientUnits="userSpaceOnUse" />
  </defs>
  <g
     id="layer1">
    <g
       id="g80"
       transform="matrix(0.45809653,-0.48434405,0.48434564,0.45809803,4.4430206,143.93918)"
       style="stroke-width:0;stroke-dasharray:none;fill-opacity:1;fill:url(#meshgradient57);stroke:#000000;stroke-opacity:1;stroke-linejoin:round;stroke-linecap:butt;paint-order:markers fill stroke;stroke-dashoffset:0">
      <path
         d="m 144.06356,126.33957 a 49.21246,49.21246 0 0 1 0.008,0.58343 49.21246,49.21246 0 0 1 -0.58343,-0.008 49.21246,49.21246 0 0 1 0.41858,0.4067 49.21246,49.21246 0 0 1 -0.41858,0.40669 49.21246,49.21246 0 0 1 0.58343,-0.008 49.21246,49.21246 0 0 1 -0.008,0.58343 49.21246,49.21246 0 0 1 0.40669,-0.41806 49.21246,49.21246 0 0 1 0.40669,0.41806 49.21246,49.21246 0 0 1 -0.008,-0.58343 49.21246,49.21246 0 0 1 0.58343,0.008 49.21246,49.21246 0 0 1 -0.41858,-0.40669 49.21246,49.21246 0 0 1 0.41858,-0.4067 49.21246,49.21246 0 0 1 -0.58343,0.008 49.21246,49.21246 0 0 1 0.008,-0.58343 49.21246,49.21246 0 0 1 -0.40669,0.41807 49.21246,49.21246 0 0 1 -0.40669,-0.41807 z"
         style="fill:none;stroke:#000000;stroke-width:0;stroke-dasharray:none;fill-opacity:1;stroke-opacity:1;stroke-linejoin:round;stroke-linecap:butt;paint-order:markers fill stroke;stroke-dashoffset:0"
         id="path46" />
      <path
         d="m 60.178755,92.406762 a 49.21246,49.21246 0 0 0 -14.530379,34.914668 49.21246,49.21246 0 0 0 14.530379,34.91466 49.21246,49.21246 0 0 0 34.68212,14.29784 49.21246,49.21246 0 0 0 0.398426,-0.002 49.21246,49.21246 0 0 0 35.087259,-15.1138 49.21246,49.21246 0 0 0 13.717,-33.11529 49.21246,49.21246 0 0 0 0.008,-0.58343 49.21246,49.21246 0 0 0 -0.58343,0.008 49.21246,49.21246 0 0 1 -33.11477,13.71699 49.21246,49.21246 0 0 1 -35.497578,-14.12368 49.21246,49.21246 0 0 1 -0.283187,-0.28061 49.21246,49.21246 0 0 1 -14.41359,-34.634058 z"
         style="fill:url(#radialGradient86);stroke:#000000;stroke-width:0;stroke-dasharray:none;fill-opacity:1;stroke-opacity:1;stroke-linejoin:round;stroke-linecap:butt;paint-order:markers fill stroke;stroke-dashoffset:0"
         id="path42" />
      <path
         d="m 144.47025,127.88522 a 49.21246,49.21246 0 0 0 -0.40669,0.41806 49.21246,49.21246 0 0 1 -13.717,33.11529 49.21246,49.21246 0 0 1 -35.087259,15.1138 49.21246,49.21246 0 0 1 -0.398426,0.002 49.21246,49.21246 0 0 1 -34.68212,-14.29784 49.21246,49.21246 0 0 0 14.41359,34.96272 49.21246,49.21246 0 0 0 34.963245,14.41411 49.21246,49.21246 0 0 0 34.63354,-14.41411 49.21246,49.21246 0 0 0 0.28112,-0.28267 49.21246,49.21246 0 0 0 14.12317,-35.49757 49.21246,49.21246 0 0 0 -13.71648,-33.11529 49.21246,49.21246 0 0 0 -0.40669,-0.41806 z"
         style="fill:url(#radialGradient356);stroke:#000000;stroke-width:0;stroke-dasharray:none;fill-opacity:1;stroke-opacity:1;stroke-linejoin:round;stroke-linecap:butt;paint-order:markers fill stroke;stroke-dashoffset:0"
         id="path41" />
      <path
         d="m 144.86867,127.71985 a 49.21246,49.21246 0 0 0 0.008,0.58343 49.21246,49.21246 0 0 1 13.71648,33.11529 49.21246,49.21246 0 0 1 -14.12317,35.49757 49.21246,49.21246 0 0 1 -0.28112,0.28267 49.21246,49.21246 0 0 1 -34.63354,14.41411 49.21246,49.21246 0 0 0 34.91466,14.53038 49.21246,49.21246 0 0 0 34.91466,-14.53038 49.21246,49.21246 0 0 0 14.29784,-34.68212 49.21246,49.21246 0 0 0 -0.002,-0.39843 49.21246,49.21246 0 0 0 -15.11329,-35.08726 49.21246,49.21246 0 0 0 -33.11529,-13.71699 49.21246,49.21246 0 0 0 -0.58343,-0.008 z"
         style="fill:url(#radialGradient85);stroke:#000000;stroke-width:0;stroke-dasharray:none;fill-opacity:1;stroke-opacity:1;stroke-linejoin:round;stroke-linecap:butt;paint-order:markers fill stroke;stroke-dashoffset:0"
         id="path40" />
      <path
         d="m 178.56739,113.19774 a 49.21246,49.21246 0 0 0 -33.11529,13.71699 49.21246,49.21246 0 0 0 -0.41858,0.4067 49.21246,49.21246 0 0 0 0.41858,0.40669 49.21246,49.21246 0 0 1 33.11529,13.71699 49.21246,49.21246 0 0 1 15.11329,35.08726 49.21246,49.21246 0 0 1 0.002,0.39843 49.21246,49.21246 0 0 1 -14.29784,34.68212 49.21246,49.21246 0 0 0 34.96273,-14.41411 49.21246,49.21246 0 0 0 0.0186,-0.0181 49.21246,49.21246 0 0 0 14.38517,-34.94981 49.21246,49.21246 0 0 0 -14.40377,-34.62889 49.21246,49.21246 0 0 0 -0.28319,-0.2806 49.21246,49.21246 0 0 0 -35.49706,-14.12369 z"
         style="fill:url(#radialGradient353);stroke:#000000;stroke-width:0;stroke-dasharray:none;fill-opacity:1;stroke-opacity:1;opacity:1;stroke-linejoin:round;stroke-linecap:butt;paint-order:markers fill stroke;stroke-dashoffset:0"
         id="path39" />
      <path
         d="m 179.38491,43.029931 a 49.21246,49.21246 0 0 0 -34.63406,14.41359 49.21246,49.21246 0 0 0 -0.2806,0.283187 49.21246,49.21246 0 0 0 -14.12369,35.497575 49.21246,49.21246 0 0 0 13.717,33.115287 49.21246,49.21246 0 0 0 0.40669,0.41807 49.21246,49.21246 0 0 0 0.40669,-0.41807 49.21246,49.21246 0 0 1 13.71648,-33.115287 49.21246,49.21246 0 0 1 35.08726,-15.113806 49.21246,49.21246 0 0 1 0.39894,-0.0016 49.21246,49.21246 0 0 1 34.68161,14.297836 49.21246,49.21246 0 0 0 -14.41359,-34.963241 49.21246,49.21246 0 0 0 -34.96273,-14.41359 z"
         style="fill:url(#radialGradient358);stroke:#000000;stroke-width:0;stroke-dasharray:none;fill-opacity:1;stroke-opacity:1;stroke-linejoin:round;stroke-linecap:butt;paint-order:markers fill stroke;stroke-dashoffset:0"
         id="path45" />
      <path
         d="m 144.47025,28.499552 a 49.21246,49.21246 0 0 0 -34.91466,14.530379 49.21246,49.21246 0 0 0 -14.29784,34.68212 49.21246,49.21246 0 0 0 0.0016,0.398426 49.21246,49.21246 0 0 0 15.11381,35.087263 49.21246,49.21246 0 0 0 33.11477,13.71699 49.21246,49.21246 0 0 0 0.58343,0.008 49.21246,49.21246 0 0 0 -0.008,-0.58343 49.21246,49.21246 0 0 1 -13.717,-33.115287 49.21246,49.21246 0 0 1 14.12369,-35.497575 49.21246,49.21246 0 0 1 0.2806,-0.283187 49.21246,49.21246 0 0 1 34.63406,-14.41359 49.21246,49.21246 0 0 0 -34.91466,-14.530379 z"
         style="fill:url(#radialGradient87);stroke:#000000;stroke-width:0;stroke-dasharray:none;fill-opacity:1;stroke-opacity:1;stroke-linejoin:round;stroke-linecap:butt;paint-order:markers fill stroke;stroke-dashoffset:0"
         id="path44" />
      <path
         d="m 109.55559,43.029931 a 49.21246,49.21246 0 0 0 -34.963245,14.41359 49.21246,49.21246 0 0 0 -14.41359,34.963241 49.21246,49.21246 0 0 0 14.41359,34.634058 49.21246,49.21246 0 0 0 0.283187,0.28061 49.21246,49.21246 0 0 0 35.497578,14.12368 49.21246,49.21246 0 0 0 33.11477,-13.71699 49.21246,49.21246 0 0 0 0.41858,-0.40669 49.21246,49.21246 0 0 0 -0.41858,-0.4067 49.21246,49.21246 0 0 1 -33.11477,-13.71699 49.21246,49.21246 0 0 1 -15.113809,-35.087263 49.21246,49.21246 0 0 1 -0.0016,-0.398426 49.21246,49.21246 0 0 1 14.297839,-34.68212 z"
         style="fill:url(#radialGradient357);stroke:#000000;stroke-width:0;stroke-dasharray:none;fill-opacity:1;stroke-opacity:1;stroke-linejoin:round;stroke-linecap:butt;paint-order:markers fill stroke;stroke-dashoffset:0"
         id="path43" />
      <path
         d="m 194.07962,78.108926 a 49.21246,49.21246 0 0 0 -0.39894,0.0016 49.21246,49.21246 0 0 0 -35.08726,15.113806 49.21246,49.21246 0 0 0 -13.71648,33.115288 49.21246,49.21246 0 0 0 -0.008,0.58343 49.21246,49.21246 0 0 0 0.58343,-0.008 49.21246,49.21246 0 0 1 33.11529,-13.71699 49.21246,49.21246 0 0 1 35.49758,14.12369 49.21246,49.21246 0 0 1 0.28267,0.2806 49.21246,49.21246 0 0 1 14.40377,34.62889 49.21246,49.21246 0 0 0 14.54071,-34.90949 A 49.21246,49.21246 0 0 0 228.7615,92.407081 49.21246,49.21246 0 0 0 194.07989,78.109245 Z"
         style="fill:url(#radialGradient84);stroke:#000000;stroke-width:0;stroke-dasharray:none;fill-opacity:1;stroke-opacity:1;stroke-linejoin:round;stroke-linecap:butt;paint-order:markers fill stroke;stroke-dashoffset:0"
         id="path38" />
    </g>
    <ellipse
       style="fill:#555753;fill-rule:evenodd;stroke:#000000;stroke-width:0;stroke-linecap:butt;stroke-linejoin:round;stroke-dasharray:none;stroke-dashoffset:0;paint-order:markers fill stroke"
       id="path1"
       cx="131.96362"
       cy="131.98987"
       rx="0.031005859"
       ry="0.026871745" />
    <ellipse
       style="fill:#555753;fill-rule:evenodd;stroke:#000000;stroke-width:0;stroke-linecap:butt;stroke-linejoin:round;stroke-dasharray:none;stroke-dashoffset:0;paint-order:markers fill stroke"
       id="ellipse1"
       cx="132.6044"
       cy="131.963"
       rx="0.031005859"
       ry="0.026871745" />
    <ellipse
       style="fill:#555753;fill-rule:evenodd;stroke:#000000;stroke-width:0;stroke-linecap:butt;stroke-linejoin:round;stroke-dasharray:none;stroke-dashoffset:0;paint-order:markers fill stroke"
       id="ellipse2"
       cx="131.99463"
       cy="132.61206"
       rx="0.031005859"
       ry="0.026871745" />
    <ellipse
       style="fill:#555753;fill-rule:evenodd;stroke:#000000;stroke-width:0;stroke-linecap:butt;stroke-linejoin:round;stroke-dasharray:none;stroke-dashoffset:0;paint-order:markers fill stroke"
       id="ellipse3"
       cx="132.63541"
       cy="132.61206"
       rx="0.031005859"
       ry="0.026871745" />
  </g>
  <script
     id="mesh_polyfill"
     type="text/javascript">
!function(){const t=&quot;http://www.w3.org/2000/svg&quot;,e=&quot;http://www.w3.org/1999/xlink&quot;,s=&quot;http://www.w3.org/1999/xhtml&quot;,r=2;if(document.createElementNS(t,&quot;meshgradient&quot;).x)return;const n=(t,e,s,r)=&gt;{let n=new x(.5*(e.x+s.x),.5*(e.y+s.y)),o=new x(.5*(t.x+e.x),.5*(t.y+e.y)),i=new x(.5*(s.x+r.x),.5*(s.y+r.y)),a=new x(.5*(n.x+o.x),.5*(n.y+o.y)),h=new x(.5*(n.x+i.x),.5*(n.y+i.y)),l=new x(.5*(a.x+h.x),.5*(a.y+h.y));return[[t,o,a,l],[l,h,i,r]]},o=t=&gt;{let e=t[0].distSquared(t[1]),s=t[2].distSquared(t[3]),r=.25*t[0].distSquared(t[2]),n=.25*t[1].distSquared(t[3]),o=e&gt;s?e:s,i=r&gt;n?r:n;return 18*(o&gt;i?o:i)},i=(t,e)=&gt;Math.sqrt(t.distSquared(e)),a=(t,e)=&gt;t.scale(2/3).add(e.scale(1/3)),h=t=&gt;{let e,s,r,n,o,i,a,h=new g;return t.match(/(\w+\(\s*[^)]+\))+/g).forEach(t=&gt;{let l=t.match(/[\w.-]+/g),d=l.shift();switch(d){case&quot;translate&quot;:2===l.length?e=new g(1,0,0,1,l[0],l[1]):(console.error(&quot;mesh.js: translate does not have 2 arguments!&quot;),e=new g(1,0,0,1,0,0)),h=h.append(e);break;case&quot;scale&quot;:1===l.length?s=new g(l[0],0,0,l[0],0,0):2===l.length?s=new g(l[0],0,0,l[1],0,0):(console.error(&quot;mesh.js: scale does not have 1 or 2 arguments!&quot;),s=new g(1,0,0,1,0,0)),h=h.append(s);break;case&quot;rotate&quot;:if(3===l.length&amp;&amp;(e=new g(1,0,0,1,l[1],l[2]),h=h.append(e)),l[0]){r=l[0]*Math.PI/180;let t=Math.cos(r),e=Math.sin(r);Math.abs(t)&lt;1e-16&amp;&amp;(t=0),Math.abs(e)&lt;1e-16&amp;&amp;(e=0),a=new g(t,e,-e,t,0,0),h=h.append(a)}else console.error(&quot;math.js: No argument to rotate transform!&quot;);3===l.length&amp;&amp;(e=new g(1,0,0,1,-l[1],-l[2]),h=h.append(e));break;case&quot;skewX&quot;:l[0]?(r=l[0]*Math.PI/180,n=Math.tan(r),o=new g(1,0,n,1,0,0),h=h.append(o)):console.error(&quot;math.js: No argument to skewX transform!&quot;);break;case&quot;skewY&quot;:l[0]?(r=l[0]*Math.PI/180,n=Math.tan(r),i=new g(1,n,0,1,0,0),h=h.append(i)):console.error(&quot;math.js: No argument to skewY transform!&quot;);break;case&quot;matrix&quot;:6===l.length?h=h.append(new g(...l)):console.error(&quot;math.js: Incorrect number of arguments for matrix!&quot;);break;default:console.error(&quot;mesh.js: Unhandled transform type: &quot;+d)}}),h},l=t=&gt;{let e=[],s=t.split(/[ ,]+/);for(let t=0,r=s.length-1;t&lt;r;t+=2)e.push(new x(parseFloat(s[t]),parseFloat(s[t+1])));return e},d=(t,e)=&gt;{for(let s in e)t.setAttribute(s,e[s])},c=(t,e,s,r,n)=&gt;{let o,i,a=[0,0,0,0];for(let h=0;h&lt;3;++h)e[h]&lt;t[h]&amp;&amp;e[h]&lt;s[h]||t[h]&lt;e[h]&amp;&amp;s[h]&lt;e[h]?a[h]=0:(a[h]=.5*((e[h]-t[h])/r+(s[h]-e[h])/n),o=Math.abs(3*(e[h]-t[h])/r),i=Math.abs(3*(s[h]-e[h])/n),a[h]&gt;o?a[h]=o:a[h]&gt;i&amp;&amp;(a[h]=i));return a},u=[[1,0,0,0,0,0,0,0,0,0,0,0,0,0,0,0],[0,0,0,0,1,0,0,0,0,0,0,0,0,0,0,0],[-3,3,0,0,-2,-1,0,0,0,0,0,0,0,0,0,0],[2,-2,0,0,1,1,0,0,0,0,0,0,0,0,0,0],[0,0,0,0,0,0,0,0,1,0,0,0,0,0,0,0],[0,0,0,0,0,0,0,0,0,0,0,0,1,0,0,0],[0,0,0,0,0,0,0,0,-3,3,0,0,-2,-1,0,0],[0,0,0,0,0,0,0,0,2,-2,0,0,1,1,0,0],[-3,0,3,0,0,0,0,0,-2,0,-1,0,0,0,0,0],[0,0,0,0,-3,0,3,0,0,0,0,0,-2,0,-1,0],[9,-9,-9,9,6,3,-6,-3,6,-6,3,-3,4,2,2,1],[-6,6,6,-6,-3,-3,3,3,-4,4,-2,2,-2,-2,-1,-1],[2,0,-2,0,0,0,0,0,1,0,1,0,0,0,0,0],[0,0,0,0,2,0,-2,0,0,0,0,0,1,0,1,0],[-6,6,6,-6,-4,-2,4,2,-3,3,-3,3,-2,-1,-2,-1],[4,-4,-4,4,2,2,-2,-2,2,-2,2,-2,1,1,1,1]],f=t=&gt;{let e=[];for(let s=0;s&lt;16;++s){e[s]=0;for(let r=0;r&lt;16;++r)e[s]+=u[s][r]*t[r]}return e},p=(t,e,s)=&gt;{const r=e*e,n=s*s,o=e*e*e,i=s*s*s;return t[0]+t[1]*e+t[2]*r+t[3]*o+t[4]*s+t[5]*s*e+t[6]*s*r+t[7]*s*o+t[8]*n+t[9]*n*e+t[10]*n*r+t[11]*n*o+t[12]*i+t[13]*i*e+t[14]*i*r+t[15]*i*o},y=t=&gt;{let e=[],s=[],r=[];for(let s=0;s&lt;4;++s)e[s]=[],e[s][0]=n(t[0][s],t[1][s],t[2][s],t[3][s]),e[s][1]=[],e[s][1].push(...n(...e[s][0][0])),e[s][1].push(...n(...e[s][0][1])),e[s][2]=[],e[s][2].push(...n(...e[s][1][0])),e[s][2].push(...n(...e[s][1][1])),e[s][2].push(...n(...e[s][1][2])),e[s][2].push(...n(...e[s][1][3]));for(let t=0;t&lt;8;++t){s[t]=[];for(let r=0;r&lt;4;++r)s[t][r]=[],s[t][r][0]=n(e[0][2][t][r],e[1][2][t][r],e[2][2][t][r],e[3][2][t][r]),s[t][r][1]=[],s[t][r][1].push(...n(...s[t][r][0][0])),s[t][r][1].push(...n(...s[t][r][0][1])),s[t][r][2]=[],s[t][r][2].push(...n(...s[t][r][1][0])),s[t][r][2].push(...n(...s[t][r][1][1])),s[t][r][2].push(...n(...s[t][r][1][2])),s[t][r][2].push(...n(...s[t][r][1][3]))}for(let t=0;t&lt;8;++t){r[t]=[];for(let e=0;e&lt;8;++e)r[t][e]=[],r[t][e][0]=s[t][0][2][e],r[t][e][1]=s[t][1][2][e],r[t][e][2]=s[t][2][2][e],r[t][e][3]=s[t][3][2][e]}return r};class x{constructor(t,e){this.x=t||0,this.y=e||0}toString(){return`(x=${this.x}, y=${this.y})`}clone(){return new x(this.x,this.y)}add(t){return new x(this.x+t.x,this.y+t.y)}scale(t){return void 0===t.x?new x(this.x*t,this.y*t):new x(this.x*t.x,this.y*t.y)}distSquared(t){let e=this.x-t.x,s=this.y-t.y;return e*e+s*s}transform(t){let e=this.x*t.a+this.y*t.c+t.e,s=this.x*t.b+this.y*t.d+t.f;return new x(e,s)}}class g{constructor(t,e,s,r,n,o){void 0===t?(this.a=1,this.b=0,this.c=0,this.d=1,this.e=0,this.f=0):(this.a=t,this.b=e,this.c=s,this.d=r,this.e=n,this.f=o)}toString(){return`affine: ${this.a} ${this.c} ${this.e} \n       ${this.b} ${this.d} ${this.f}`}append(t){t instanceof g||console.error(&quot;mesh.js: argument to Affine.append is not affine!&quot;);let e=this.a*t.a+this.c*t.b,s=this.b*t.a+this.d*t.b,r=this.a*t.c+this.c*t.d,n=this.b*t.c+this.d*t.d,o=this.a*t.e+this.c*t.f+this.e,i=this.b*t.e+this.d*t.f+this.f;return new g(e,s,r,n,o,i)}}class w{constructor(t,e){this.nodes=t,this.colors=e}paintCurve(t,e){if(o(this.nodes)&gt;r){const s=n(...this.nodes);let r=[[],[]],o=[[],[]];for(let t=0;t&lt;4;++t)r[0][t]=this.colors[0][t],r[1][t]=(this.colors[0][t]+this.colors[1][t])/2,o[0][t]=r[1][t],o[1][t]=this.colors[1][t];let i=new w(s[0],r),a=new w(s[1],o);i.paintCurve(t,e),a.paintCurve(t,e)}else{let s=Math.round(this.nodes[0].x);if(s&gt;=0&amp;&amp;s&lt;e){let r=4*(~~this.nodes[0].y*e+s);t[r]=Math.round(this.colors[0][0]),t[r+1]=Math.round(this.colors[0][1]),t[r+2]=Math.round(this.colors[0][2]),t[r+3]=Math.round(this.colors[0][3])}}}}class m{constructor(t,e){this.nodes=t,this.colors=e}split(){let t=[[],[],[],[]],e=[[],[],[],[]],s=[[[],[]],[[],[]]],r=[[[],[]],[[],[]]];for(let s=0;s&lt;4;++s){const r=n(this.nodes[0][s],this.nodes[1][s],this.nodes[2][s],this.nodes[3][s]);t[0][s]=r[0][0],t[1][s]=r[0][1],t[2][s]=r[0][2],t[3][s]=r[0][3],e[0][s]=r[1][0],e[1][s]=r[1][1],e[2][s]=r[1][2],e[3][s]=r[1][3]}for(let t=0;t&lt;4;++t)s[0][0][t]=this.colors[0][0][t],s[0][1][t]=this.colors[0][1][t],s[1][0][t]=(this.colors[0][0][t]+this.colors[1][0][t])/2,s[1][1][t]=(this.colors[0][1][t]+this.colors[1][1][t])/2,r[0][0][t]=s[1][0][t],r[0][1][t]=s[1][1][t],r[1][0][t]=this.colors[1][0][t],r[1][1][t]=this.colors[1][1][t];return[new m(t,s),new m(e,r)]}paint(t,e){let s,n=!1;for(let t=0;t&lt;4;++t)if((s=o([this.nodes[0][t],this.nodes[1][t],this.nodes[2][t],this.nodes[3][t]]))&gt;r){n=!0;break}if(n){let s=this.split();s[0].paint(t,e),s[1].paint(t,e)}else{new w([...this.nodes[0]],[...this.colors[0]]).paintCurve(t,e)}}}class b{constructor(t){this.readMesh(t),this.type=t.getAttribute(&quot;type&quot;)||&quot;bilinear&quot;}readMesh(t){let e=[[]],s=[[]],r=Number(t.getAttribute(&quot;x&quot;)),n=Number(t.getAttribute(&quot;y&quot;));e[0][0]=new x(r,n);let o=t.children;for(let t=0,r=o.length;t&lt;r;++t){e[3*t+1]=[],e[3*t+2]=[],e[3*t+3]=[],s[t+1]=[];let r=o[t].children;for(let n=0,o=r.length;n&lt;o;++n){let o=r[n].children;for(let r=0,i=o.length;r&lt;i;++r){let i=r;0!==t&amp;&amp;++i;let h,d=o[r].getAttribute(&quot;path&quot;),c=&quot;l&quot;;null!=d&amp;&amp;(c=(h=d.match(/\s*([lLcC])\s*(.*)/))[1]);let u=l(h[2]);switch(c){case&quot;l&quot;:0===i?(e[3*t][3*n+3]=u[0].add(e[3*t][3*n]),e[3*t][3*n+1]=a(e[3*t][3*n],e[3*t][3*n+3]),e[3*t][3*n+2]=a(e[3*t][3*n+3],e[3*t][3*n])):1===i?(e[3*t+3][3*n+3]=u[0].add(e[3*t][3*n+3]),e[3*t+1][3*n+3]=a(e[3*t][3*n+3],e[3*t+3][3*n+3]),e[3*t+2][3*n+3]=a(e[3*t+3][3*n+3],e[3*t][3*n+3])):2===i?(0===n&amp;&amp;(e[3*t+3][3*n+0]=u[0].add(e[3*t+3][3*n+3])),e[3*t+3][3*n+1]=a(e[3*t+3][3*n],e[3*t+3][3*n+3]),e[3*t+3][3*n+2]=a(e[3*t+3][3*n+3],e[3*t+3][3*n])):(e[3*t+1][3*n]=a(e[3*t][3*n],e[3*t+3][3*n]),e[3*t+2][3*n]=a(e[3*t+3][3*n],e[3*t][3*n]));break;case&quot;L&quot;:0===i?(e[3*t][3*n+3]=u[0],e[3*t][3*n+1]=a(e[3*t][3*n],e[3*t][3*n+3]),e[3*t][3*n+2]=a(e[3*t][3*n+3],e[3*t][3*n])):1===i?(e[3*t+3][3*n+3]=u[0],e[3*t+1][3*n+3]=a(e[3*t][3*n+3],e[3*t+3][3*n+3]),e[3*t+2][3*n+3]=a(e[3*t+3][3*n+3],e[3*t][3*n+3])):2===i?(0===n&amp;&amp;(e[3*t+3][3*n+0]=u[0]),e[3*t+3][3*n+1]=a(e[3*t+3][3*n],e[3*t+3][3*n+3]),e[3*t+3][3*n+2]=a(e[3*t+3][3*n+3],e[3*t+3][3*n])):(e[3*t+1][3*n]=a(e[3*t][3*n],e[3*t+3][3*n]),e[3*t+2][3*n]=a(e[3*t+3][3*n],e[3*t][3*n]));break;case&quot;c&quot;:0===i?(e[3*t][3*n+1]=u[0].add(e[3*t][3*n]),e[3*t][3*n+2]=u[1].add(e[3*t][3*n]),e[3*t][3*n+3]=u[2].add(e[3*t][3*n])):1===i?(e[3*t+1][3*n+3]=u[0].add(e[3*t][3*n+3]),e[3*t+2][3*n+3]=u[1].add(e[3*t][3*n+3]),e[3*t+3][3*n+3]=u[2].add(e[3*t][3*n+3])):2===i?(e[3*t+3][3*n+2]=u[0].add(e[3*t+3][3*n+3]),e[3*t+3][3*n+1]=u[1].add(e[3*t+3][3*n+3]),0===n&amp;&amp;(e[3*t+3][3*n+0]=u[2].add(e[3*t+3][3*n+3]))):(e[3*t+2][3*n]=u[0].add(e[3*t+3][3*n]),e[3*t+1][3*n]=u[1].add(e[3*t+3][3*n]));break;case&quot;C&quot;:0===i?(e[3*t][3*n+1]=u[0],e[3*t][3*n+2]=u[1],e[3*t][3*n+3]=u[2]):1===i?(e[3*t+1][3*n+3]=u[0],e[3*t+2][3*n+3]=u[1],e[3*t+3][3*n+3]=u[2]):2===i?(e[3*t+3][3*n+2]=u[0],e[3*t+3][3*n+1]=u[1],0===n&amp;&amp;(e[3*t+3][3*n+0]=u[2])):(e[3*t+2][3*n]=u[0],e[3*t+1][3*n]=u[1]);break;default:console.error(&quot;mesh.js: &quot;+c+&quot; invalid path type.&quot;)}if(0===t&amp;&amp;0===n||r&gt;0){let e=window.getComputedStyle(o[r]).stopColor.match(/^rgb\s*\(\s*(\d+)\s*,\s*(\d+)\s*,\s*(\d+)\s*\)$/i),a=window.getComputedStyle(o[r]).stopOpacity,h=255;a&amp;&amp;(h=Math.floor(255*a)),e&amp;&amp;(0===i?(s[t][n]=[],s[t][n][0]=Math.floor(e[1]),s[t][n][1]=Math.floor(e[2]),s[t][n][2]=Math.floor(e[3]),s[t][n][3]=h):1===i?(s[t][n+1]=[],s[t][n+1][0]=Math.floor(e[1]),s[t][n+1][1]=Math.floor(e[2]),s[t][n+1][2]=Math.floor(e[3]),s[t][n+1][3]=h):2===i?(s[t+1][n+1]=[],s[t+1][n+1][0]=Math.floor(e[1]),s[t+1][n+1][1]=Math.floor(e[2]),s[t+1][n+1][2]=Math.floor(e[3]),s[t+1][n+1][3]=h):3===i&amp;&amp;(s[t+1][n]=[],s[t+1][n][0]=Math.floor(e[1]),s[t+1][n][1]=Math.floor(e[2]),s[t+1][n][2]=Math.floor(e[3]),s[t+1][n][3]=h))}}e[3*t+1][3*n+1]=new x,e[3*t+1][3*n+2]=new x,e[3*t+2][3*n+1]=new x,e[3*t+2][3*n+2]=new x,e[3*t+1][3*n+1].x=(-4*e[3*t][3*n].x+6*(e[3*t][3*n+1].x+e[3*t+1][3*n].x)+-2*(e[3*t][3*n+3].x+e[3*t+3][3*n].x)+3*(e[3*t+3][3*n+1].x+e[3*t+1][3*n+3].x)+-1*e[3*t+3][3*n+3].x)/9,e[3*t+1][3*n+2].x=(-4*e[3*t][3*n+3].x+6*(e[3*t][3*n+2].x+e[3*t+1][3*n+3].x)+-2*(e[3*t][3*n].x+e[3*t+3][3*n+3].x)+3*(e[3*t+3][3*n+2].x+e[3*t+1][3*n].x)+-1*e[3*t+3][3*n].x)/9,e[3*t+2][3*n+1].x=(-4*e[3*t+3][3*n].x+6*(e[3*t+3][3*n+1].x+e[3*t+2][3*n].x)+-2*(e[3*t+3][3*n+3].x+e[3*t][3*n].x)+3*(e[3*t][3*n+1].x+e[3*t+2][3*n+3].x)+-1*e[3*t][3*n+3].x)/9,e[3*t+2][3*n+2].x=(-4*e[3*t+3][3*n+3].x+6*(e[3*t+3][3*n+2].x+e[3*t+2][3*n+3].x)+-2*(e[3*t+3][3*n].x+e[3*t][3*n+3].x)+3*(e[3*t][3*n+2].x+e[3*t+2][3*n].x)+-1*e[3*t][3*n].x)/9,e[3*t+1][3*n+1].y=(-4*e[3*t][3*n].y+6*(e[3*t][3*n+1].y+e[3*t+1][3*n].y)+-2*(e[3*t][3*n+3].y+e[3*t+3][3*n].y)+3*(e[3*t+3][3*n+1].y+e[3*t+1][3*n+3].y)+-1*e[3*t+3][3*n+3].y)/9,e[3*t+1][3*n+2].y=(-4*e[3*t][3*n+3].y+6*(e[3*t][3*n+2].y+e[3*t+1][3*n+3].y)+-2*(e[3*t][3*n].y+e[3*t+3][3*n+3].y)+3*(e[3*t+3][3*n+2].y+e[3*t+1][3*n].y)+-1*e[3*t+3][3*n].y)/9,e[3*t+2][3*n+1].y=(-4*e[3*t+3][3*n].y+6*(e[3*t+3][3*n+1].y+e[3*t+2][3*n].y)+-2*(e[3*t+3][3*n+3].y+e[3*t][3*n].y)+3*(e[3*t][3*n+1].y+e[3*t+2][3*n+3].y)+-1*e[3*t][3*n+3].y)/9,e[3*t+2][3*n+2].y=(-4*e[3*t+3][3*n+3].y+6*(e[3*t+3][3*n+2].y+e[3*t+2][3*n+3].y)+-2*(e[3*t+3][3*n].y+e[3*t][3*n+3].y)+3*(e[3*t][3*n+2].y+e[3*t+2][3*n].y)+-1*e[3*t][3*n].y)/9}}this.nodes=e,this.colors=s}paintMesh(t,e){let s=(this.nodes.length-1)/3,r=(this.nodes[0].length-1)/3;if(&quot;bilinear&quot;===this.type||s&lt;2||r&lt;2){let n;for(let o=0;o&lt;s;++o)for(let s=0;s&lt;r;++s){let r=[];for(let t=3*o,e=3*o+4;t&lt;e;++t)r.push(this.nodes[t].slice(3*s,3*s+4));let i=[];i.push(this.colors[o].slice(s,s+2)),i.push(this.colors[o+1].slice(s,s+2)),(n=new m(r,i)).paint(t,e)}}else{let n,o,a,h,l,d,u;const x=s,g=r;s++,r++;let w=new Array(s);for(let t=0;t&lt;s;++t){w[t]=new Array(r);for(let e=0;e&lt;r;++e)w[t][e]=[],w[t][e][0]=this.nodes[3*t][3*e],w[t][e][1]=this.colors[t][e]}for(let t=0;t&lt;s;++t)for(let e=0;e&lt;r;++e)0!==t&amp;&amp;t!==x&amp;&amp;(n=i(w[t-1][e][0],w[t][e][0]),o=i(w[t+1][e][0],w[t][e][0]),w[t][e][2]=c(w[t-1][e][1],w[t][e][1],w[t+1][e][1],n,o)),0!==e&amp;&amp;e!==g&amp;&amp;(n=i(w[t][e-1][0],w[t][e][0]),o=i(w[t][e+1][0],w[t][e][0]),w[t][e][3]=c(w[t][e-1][1],w[t][e][1],w[t][e+1][1],n,o));for(let t=0;t&lt;r;++t){w[0][t][2]=[],w[x][t][2]=[];for(let e=0;e&lt;4;++e)n=i(w[1][t][0],w[0][t][0]),o=i(w[x][t][0],w[x-1][t][0]),w[0][t][2][e]=n&gt;0?2*(w[1][t][1][e]-w[0][t][1][e])/n-w[1][t][2][e]:0,w[x][t][2][e]=o&gt;0?2*(w[x][t][1][e]-w[x-1][t][1][e])/o-w[x-1][t][2][e]:0}for(let t=0;t&lt;s;++t){w[t][0][3]=[],w[t][g][3]=[];for(let e=0;e&lt;4;++e)n=i(w[t][1][0],w[t][0][0]),o=i(w[t][g][0],w[t][g-1][0]),w[t][0][3][e]=n&gt;0?2*(w[t][1][1][e]-w[t][0][1][e])/n-w[t][1][3][e]:0,w[t][g][3][e]=o&gt;0?2*(w[t][g][1][e]-w[t][g-1][1][e])/o-w[t][g-1][3][e]:0}for(let s=0;s&lt;x;++s)for(let r=0;r&lt;g;++r){let n=i(w[s][r][0],w[s+1][r][0]),o=i(w[s][r+1][0],w[s+1][r+1][0]),c=i(w[s][r][0],w[s][r+1][0]),x=i(w[s+1][r][0],w[s+1][r+1][0]),g=[[],[],[],[]];for(let t=0;t&lt;4;++t){(d=[])[0]=w[s][r][1][t],d[1]=w[s+1][r][1][t],d[2]=w[s][r+1][1][t],d[3]=w[s+1][r+1][1][t],d[4]=w[s][r][2][t]*n,d[5]=w[s+1][r][2][t]*n,d[6]=w[s][r+1][2][t]*o,d[7]=w[s+1][r+1][2][t]*o,d[8]=w[s][r][3][t]*c,d[9]=w[s+1][r][3][t]*x,d[10]=w[s][r+1][3][t]*c,d[11]=w[s+1][r+1][3][t]*x,d[12]=0,d[13]=0,d[14]=0,d[15]=0,u=f(d);for(let e=0;e&lt;9;++e){g[t][e]=[];for(let s=0;s&lt;9;++s)g[t][e][s]=p(u,e/8,s/8),g[t][e][s]&gt;255?g[t][e][s]=255:g[t][e][s]&lt;0&amp;&amp;(g[t][e][s]=0)}}h=[];for(let t=3*s,e=3*s+4;t&lt;e;++t)h.push(this.nodes[t].slice(3*r,3*r+4));l=y(h);for(let s=0;s&lt;8;++s)for(let r=0;r&lt;8;++r)(a=new m(l[s][r],[[[g[0][s][r],g[1][s][r],g[2][s][r],g[3][s][r]],[g[0][s][r+1],g[1][s][r+1],g[2][s][r+1],g[3][s][r+1]]],[[g[0][s+1][r],g[1][s+1][r],g[2][s+1][r],g[3][s+1][r]],[g[0][s+1][r+1],g[1][s+1][r+1],g[2][s+1][r+1],g[3][s+1][r+1]]]])).paint(t,e)}}}transform(t){if(t instanceof x)for(let e=0,s=this.nodes.length;e&lt;s;++e)for(let s=0,r=this.nodes[0].length;s&lt;r;++s)this.nodes[e][s]=this.nodes[e][s].add(t);else if(t instanceof g)for(let e=0,s=this.nodes.length;e&lt;s;++e)for(let s=0,r=this.nodes[0].length;s&lt;r;++s)this.nodes[e][s]=this.nodes[e][s].transform(t)}scale(t){for(let e=0,s=this.nodes.length;e&lt;s;++e)for(let s=0,r=this.nodes[0].length;s&lt;r;++s)this.nodes[e][s]=this.nodes[e][s].scale(t)}}document.querySelectorAll(&quot;rect,circle,ellipse,path,text&quot;).forEach((r,n)=&gt;{let o=r.getAttribute(&quot;id&quot;);o||(o=&quot;patchjs_shape&quot;+n,r.setAttribute(&quot;id&quot;,o));const i=r.style.fill.match(/^url\(\s*&quot;?\s*#([^\s&quot;]+)&quot;?\s*\)/),a=r.style.stroke.match(/^url\(\s*&quot;?\s*#([^\s&quot;]+)&quot;?\s*\)/);if(i&amp;&amp;i[1]){const a=document.getElementById(i[1]);if(a&amp;&amp;&quot;meshgradient&quot;===a.nodeName){const i=r.getBBox();let l=document.createElementNS(s,&quot;canvas&quot;);d(l,{width:i.width,height:i.height});const c=l.getContext(&quot;2d&quot;);let u=c.createImageData(i.width,i.height);const f=new b(a);&quot;objectBoundingBox&quot;===a.getAttribute(&quot;gradientUnits&quot;)&amp;&amp;f.scale(new x(i.width,i.height));const p=a.getAttribute(&quot;gradientTransform&quot;);null!=p&amp;&amp;f.transform(h(p)),&quot;userSpaceOnUse&quot;===a.getAttribute(&quot;gradientUnits&quot;)&amp;&amp;f.transform(new x(-i.x,-i.y)),f.paintMesh(u.data,l.width),c.putImageData(u,0,0);const y=document.createElementNS(t,&quot;image&quot;);d(y,{width:i.width,height:i.height,x:i.x,y:i.y});let g=l.toDataURL();y.setAttributeNS(e,&quot;xlink:href&quot;,g),r.parentNode.insertBefore(y,r),r.style.fill=&quot;none&quot;;const w=document.createElementNS(t,&quot;use&quot;);w.setAttributeNS(e,&quot;xlink:href&quot;,&quot;#&quot;+o);const m=&quot;patchjs_clip&quot;+n,M=document.createElementNS(t,&quot;clipPath&quot;);M.setAttribute(&quot;id&quot;,m),M.appendChild(w),r.parentElement.insertBefore(M,r),y.setAttribute(&quot;clip-path&quot;,&quot;url(#&quot;+m+&quot;)&quot;),u=null,l=null,g=null}}if(a&amp;&amp;a[1]){const o=document.getElementById(a[1]);if(o&amp;&amp;&quot;meshgradient&quot;===o.nodeName){const i=parseFloat(r.style.strokeWidth.slice(0,-2))*(parseFloat(r.style.strokeMiterlimit)||parseFloat(r.getAttribute(&quot;stroke-miterlimit&quot;))||1),a=r.getBBox(),l=Math.trunc(a.width+i),c=Math.trunc(a.height+i),u=Math.trunc(a.x-i/2),f=Math.trunc(a.y-i/2);let p=document.createElementNS(s,&quot;canvas&quot;);d(p,{width:l,height:c});const y=p.getContext(&quot;2d&quot;);let g=y.createImageData(l,c);const w=new b(o);&quot;objectBoundingBox&quot;===o.getAttribute(&quot;gradientUnits&quot;)&amp;&amp;w.scale(new x(l,c));const m=o.getAttribute(&quot;gradientTransform&quot;);null!=m&amp;&amp;w.transform(h(m)),&quot;userSpaceOnUse&quot;===o.getAttribute(&quot;gradientUnits&quot;)&amp;&amp;w.transform(new x(-u,-f)),w.paintMesh(g.data,p.width),y.putImageData(g,0,0);const M=document.createElementNS(t,&quot;image&quot;);d(M,{width:l,height:c,x:0,y:0});let S=p.toDataURL();M.setAttributeNS(e,&quot;xlink:href&quot;,S);const k=&quot;pattern_clip&quot;+n,A=document.createElementNS(t,&quot;pattern&quot;);d(A,{id:k,patternUnits:&quot;userSpaceOnUse&quot;,width:l,height:c,x:u,y:f}),A.appendChild(M),o.parentNode.appendChild(A),r.style.stroke=&quot;url(#&quot;+k+&quot;)&quot;,g=null,p=null,S=null}}})}();
</script>
</svg>
